<?xml version="1.0" standalone="no"?>
<!DOCTYPE svg PUBLIC "-//W3C//DTD SVG 20010904//EN"
 "http://www.w3.org/TR/2001/REC-SVG-20010904/DTD/svg10.dtd">
<svg version="1.0" xmlns="http://www.w3.org/2000/svg"
 width="1204.000000pt" height="630.000000pt" viewBox="0 0 1204.000000 630.000000"
 preserveAspectRatio="xMidYMid meet">

<g transform="translate(0.000000,630.000000) scale(0.100000,-0.100000)"
fill="#000000" stroke="none">
<path d="M470 6284 c-220 -47 -408 -237 -455 -459 -22 -106 -22 -5244 0 -5350
47 -225 237 -414 462 -460 64 -13 729 -15 5570 -13 l5498 3 80 27 c191 65 326
205 387 398 l23 75 0 2650 0 2650 -28 79 c-35 99 -66 153 -129 221 -65 72
-155 129 -253 163 l-80 27 -5505 2 c-4693 1 -5515 -1 -5570 -13z m6538 -2076
c9 -9 12 -254 12 -1039 0 -565 -3 -1034 -6 -1043 -5 -14 -31 -16 -189 -16
-170 0 -184 1 -209 21 -14 11 -142 171 -283 355 -140 184 -258 336 -262 338
-3 2 -125 -151 -271 -340 -145 -190 -275 -351 -287 -360 -19 -12 -63 -14 -250
-12 -204 3 -228 5 -228 19 0 15 98 147 430 578 50 64 153 199 230 300 77 100
205 267 284 369 79 103 250 326 380 496 130 170 250 317 266 328 26 15 52 18
201 18 119 0 174 -4 182 -12z m-953 -136 c180 -139 178 -132 64 -282 l-82
-108 -151 115 c-83 64 -170 130 -193 147 -23 17 -42 33 -42 36 0 3 37 52 82
110 87 110 112 127 157 104 14 -8 88 -62 165 -122z m-283 -333 c101 -77 184
-144 186 -148 1 -5 -71 -103 -160 -219 -90 -115 -212 -274 -271 -351 -59 -77
-111 -142 -115 -145 -4 -2 -74 -12 -155 -22 l-148 -18 -24 25 c-23 24 -32 69
-52 259 l-5 55 139 180 c76 99 198 258 271 353 73 94 137 172 142 172 5 0 91
-63 192 -141z"/>
<path d="M6476 3362 c-117 -152 -147 -197 -140 -211 5 -9 72 -99 149 -199
l140 -182 3 195 c1 107 1 284 0 393 l-3 197 -149 -193z"/>
</g>
</svg>
